# xmcd
#
# Track frame offsets:
#	150
#	9867
#	20799
#	31355
#	40160
#	50183
#	60103
#	70704
#	82073
#	92966
#	104447
#	116078
#	127715
#	143305
#	155421
#	165263
#	177049
#	192104
#	203985
#	215509
#	228417
#	239230
#	249860
#	260661
#	272638
#	281802
#	292675
#	306564
#
# Disc length: 4245 seconds
#
# Revision: 1
# Processed by: cddbd v1.5.1PL0 Copyright (c) Steve Scherf et al.
# Submitted via: audiograbber 1.82.02
#
DISCID=8910931c
DTITLE=Hank Snow - The Hank Snow Collection CD 2
DYEAR=1900
DGENRE=
TTITLE0=Chasing A Rainbow
TTITLE1=The Last Mile
TTITLE2=Doggone That Train
TTITLE3=Fathers Time and Mothers Love
TTITLE4=I Heard Heartbreak Last Night
TTITLE5=Walking And Talking
TTITLE6=Rockin' Rollin Ocean
TTITLE7=Millen's Cafe
TTITLE8=Dreamers Island
TTITLE9=Changing of The Tide
TTITLE10=I'm Movin On
TTITLE11=Golden Rocket
TTITLE12=My Mother
TTITLE13=I Don't Hurt Anyone
TTITLE14=Concience I'm Quality
TTITLE15=I'M Asking For A Friend
TTITLE16=Blue Bird Island
TTITLE17=A Fool Such As I
TTITLE18=Marriage Vow
TTITLE19=With This Ring I Thee Wed
TTITLE20=Rockin' Rollin Ocean
TTITLE21=My Nova Scotia Hime
TTITLE22=The Tramps Story
TTITLE23=Time Life Blues
TTITLE24=Casey Jones Was His Name
TTITLE25=South Bound
TTITLE26=The Streamlined Cannonball
TTITLE27=Lonesome Whistle
EXTD=
EXTT0=
EXTT1=
EXTT2=
EXTT3=
EXTT4=
EXTT5=
EXTT6=
EXTT7=
EXTT8=
EXTT9=
EXTT10=
EXTT11=
EXTT12=
EXTT13=
EXTT14=
EXTT15=
EXTT16=
EXTT17=
EXTT18=
EXTT19=
EXTT20=
EXTT21=
EXTT22=
EXTT23=
EXTT24=
EXTT25=
EXTT26=
EXTT27=
PLAYORDER=
